<?xml version="1.0" standalone="no"?>
<!DOCTYPE svg PUBLIC "-//W3C//DTD SVG 20010904//EN"
 "http://www.w3.org/TR/2001/REC-SVG-20010904/DTD/svg10.dtd">
<svg version="1.0" xmlns="http://www.w3.org/2000/svg"
 width="606.000000pt" height="606.000000pt" viewBox="0 0 606.000000 606.000000"
 preserveAspectRatio="xMidYMid meet">
<metadata>
Created by potrace 1.14, written by Peter Selinger 2001-2017
</metadata>
<g transform="translate(0.000000,606.000000) scale(0.100000,-0.100000)"
fill="#000000" stroke="none">
<path d="M770 4879 c-88 -80 -245 -225 -315 -290 -38 -36 -96 -90 -128 -119
l-57 -54 557 -559 c307 -307 559 -559 560 -560 1 -1 4 -58 8 -127 3 -69 8
-159 10 -200 3 -41 7 -138 10 -215 3 -77 8 -178 10 -225 6 -115 17 -351 18
-425 2 -55 0 -60 -18 -57 -11 2 -30 3 -42 3 -12 0 -24 3 -27 8 -3 5 -8 62 -11
128 -3 65 -7 163 -10 218 -2 55 -7 156 -10 225 -3 69 -7 159 -9 200 -2 41 -7
143 -11 225 -4 98 -11 157 -19 170 -20 31 -816 825 -826 825 -15 0 -440 -430
-440 -445 0 -7 6 -20 14 -27 41 -38 469 -464 474 -473 4 -5 44 -45 88 -87 45
-43 79 -79 77 -82 -3 -2 4 -7 14 -11 34 -14 146 -143 149 -172 1 -16 3 -28 4
-28 2 0 3 -11 4 -25 1 -14 7 -52 14 -85 16 -81 50 -272 56 -315 13 -86 25
-123 51 -150 l28 -29 -39 6 c-64 10 -84 21 -85 45 -1 26 -5 53 -12 84 -6 22
-15 78 -22 129 -3 17 -12 68 -20 115 -9 47 -22 120 -30 164 l-14 78 -199 200
-200 201 -61 -60 c-46 -46 -59 -65 -56 -82 2 -13 7 -62 10 -109 4 -48 8 -98
11 -112 2 -14 7 -54 10 -90 16 -195 25 -283 30 -320 5 -39 7 -41 672 -705
l393 -392 2214 0 c1259 0 2215 3 2215 8 0 5 -10 9 -22 10 -30 1 -56 5 -158 24
-47 8 -98 17 -115 20 -16 2 -41 7 -55 9 -14 3 -54 10 -90 16 -36 5 -76 12 -90
15 -27 5 -186 33 -235 41 -16 3 -41 7 -55 10 -14 2 -38 6 -55 9 -33 5 -70 13
-70 15 0 1 -16 3 -35 4 -19 2 -51 7 -70 10 -199 37 -213 40 -280 50 -19 3 -46
8 -60 11 -14 3 -43 8 -65 11 -47 7 -52 8 -170 29 -49 8 -124 22 -165 30 -41 8
-91 17 -110 19 -19 3 -46 7 -60 10 -14 3 -41 7 -60 10 -19 3 -44 7 -55 10 -11
2 -52 9 -92 16 -39 6 -77 13 -85 14 -36 7 -86 17 -113 21 -16 3 -55 9 -85 15
-30 5 -70 12 -87 15 -18 3 -45 7 -60 9 -61 10 -209 36 -233 41 -25 5 -42 8
-140 25 -30 5 -71 12 -90 16 -55 10 -73 13 -110 19 -19 3 -60 9 -90 15 -30 5
-66 12 -80 14 -14 3 -68 12 -120 22 -52 9 -104 18 -115 19 -11 1 -33 5 -50 8
-38 8 -106 19 -122 20 -9 0 -10 4 -2 13 10 12 8 75 -6 244 -3 36 -8 92 -10
125 -2 33 -6 87 -9 120 -8 90 -16 183 -21 245 -7 93 -16 193 -20 230 -2 19 -7
67 -10 105 -6 82 -12 157 -20 240 -3 33 -7 87 -10 120 -3 33 -7 83 -10 110 -3
28 -8 91 -11 140 -4 50 -8 104 -9 120 -2 17 -3 38 -4 48 0 11 -250 268 -554
573 l-553 554 -44 -41z"/>
<path d="M5250 3403 c-35 -45 -2 -113 54 -113 36 0 77 41 74 75 -5 61 -90 86
-128 38z"/>
<path d="M2136 3352 c-5 -8 -8 -233 -6 -495 l0 -88 133 2 c165 1 231 20 295
82 23 23 42 47 42 54 0 7 4 13 8 13 9 0 29 59 31 90 6 86 6 106 0 115 -4 6 -8
13 -8 18 -1 4 -1 8 -2 10 0 1 -2 10 -4 20 -11 56 -92 138 -161 164 -44 16
-319 29 -328 15z m291 -116 c62 -28 98 -99 94 -185 -4 -82 -44 -142 -114 -168
-45 -16 -157 -17 -158 0 -1 14 -1 335 0 358 1 22 126 19 178 -5z"/>
<path d="M3464 3239 c-3 -5 -9 -7 -13 -4 -10 5 -68 -22 -76 -36 -11 -17 -24
-9 -20 11 2 11 1 21 -3 21 -26 6 -112 6 -113 1 -1 -10 -1 -423 0 -445 1 -16 9
-18 59 -15 l57 3 1 135 c0 74 4 149 8 166 9 42 67 74 114 64 74 -17 86 -50 85
-242 l0 -128 57 0 c47 0 58 3 62 18 5 21 1 281 -5 302 -15 60 -23 75 -46 99
-39 40 -152 74 -167 50z"/>
<path d="M3930 3240 c-77 -22 -122 -64 -149 -136 -57 -153 27 -323 169 -340
52 -6 136 20 151 48 14 26 23 15 28 -34 1 -5 26 -8 56 -8 30 0 56 3 56 8 1 4
3 107 4 229 2 248 6 234 -70 229 -55 -4 -54 -4 -48 -26 4 -14 0 -20 -11 -20
-9 0 -16 4 -16 8 0 10 -47 35 -70 38 -8 1 -28 4 -45 7 -16 3 -41 2 -55 -3z
m143 -123 c25 -16 55 -57 42 -57 -4 0 -3 -6 2 -12 12 -21 10 -81 -4 -110 -40
-83 -150 -92 -206 -16 -40 54 -18 179 37 204 31 15 100 10 129 -9z"/>
<path d="M4555 3231 c-22 -8 -44 -21 -48 -28 -5 -7 -13 -11 -18 -8 -5 4 -7 10
-4 15 13 21 -61 35 -115 21 -3 0 -5 -104 -5 -231 l0 -230 57 0 c32 0 58 3 59
8 0 4 2 72 3 152 2 146 12 190 43 190 7 0 13 5 13 11 0 14 80 9 106 -8 37 -23
44 -57 44 -208 l0 -145 59 0 60 0 3 158 c3 145 5 159 24 180 15 16 36 25 69
27 41 4 51 1 76 -25 16 -15 30 -39 30 -52 1 -13 2 -81 3 -153 l1 -130 58 -3
c49 -3 57 0 58 15 6 95 -1 306 -10 334 -18 55 -74 108 -121 115 -8 1 -25 5
-38 8 -35 8 -118 -22 -148 -54 l-28 -29 -37 34 c-52 47 -128 61 -194 36z"/>
<path d="M5610 3235 c-117 -35 -174 -124 -165 -256 11 -160 165 -257 316 -200
54 21 64 29 102 86 39 58 36 65 -29 65 -50 0 -60 -4 -86 -30 -26 -28 -36 -32
-73 -32 -44 0 -56 5 -80 36 -46 60 -41 154 11 215 29 34 97 29 136 -9 26 -27
36 -30 89 -30 65 0 69 5 42 53 -17 29 -73 92 -73 81 0 -2 -9 0 -21 6 -43 24
-119 31 -169 15z"/>
<path d="M2684 3228 c-3 -4 7 -32 21 -63 14 -31 25 -60 25 -65 0 -6 4 -18 10
-28 5 -9 21 -46 36 -82 14 -36 32 -78 39 -95 15 -34 28 -68 29 -75 1 -3 5 -11
10 -18 8 -13 1 -35 -37 -122 -11 -25 -28 -64 -38 -87 l-18 -43 63 0 64 0 17
43 c9 23 22 53 28 67 6 14 11 27 12 30 5 16 30 72 55 128 17 35 30 65 30 68 0
2 23 59 51 127 73 173 72 171 75 182 1 6 5 17 9 26 5 14 -3 16 -55 15 l-62 -1
-45 -120 c-24 -66 -47 -127 -50 -135 -3 -8 -7 -21 -9 -29 -7 -35 -22 -29 -37
16 -9 26 -30 84 -47 128 -17 44 -36 94 -41 111 -9 31 -10 31 -70 31 -33 0 -62
-4 -65 -9z"/>
<path d="M5249 3222 c0 -9 -1 -114 -2 -232 l-1 -215 57 -3 c41 -2 57 1 58 10
4 56 3 441 -1 447 -3 4 -29 8 -57 9 -44 2 -53 -1 -54 -16z"/>
<path d="M3160 2669 c-26 -47 25 -100 69 -72 20 13 26 60 10 79 -18 22 -66 18
-79 -7z"/>
<path d="M4509 2674 c-42 -51 29 -114 76 -68 18 18 13 63 -8 76 -20 13 -54 9
-68 -8z"/>
<path d="M2629 2662 c-4 -50 -4 -589 -1 -599 4 -14 71 -18 73 -5 1 4 2 72 3
152 2 156 10 188 56 222 33 24 111 26 145 4 49 -32 58 -67 58 -234 l1 -153 35
3 c35 3 36 4 36 46 0 23 4 42 8 42 5 0 5 5 1 11 -3 6 -6 39 -6 74 0 35 3 68 6
74 4 6 4 11 -1 11 -4 0 -9 20 -10 45 -3 59 -25 99 -75 135 -33 24 -51 30 -94
30 -60 0 -100 -12 -130 -41 -12 -11 -24 -17 -26 -12 -3 4 -4 52 -4 106 1 53
-1 97 -4 98 -50 8 -70 6 -71 -9z"/>
<path d="M2256 2638 c-49 -10 -104 -51 -118 -86 -24 -63 -13 -141 26 -175 23
-19 82 -48 106 -51 8 -1 22 -5 30 -8 8 -3 34 -11 58 -19 120 -36 100 -182 -25
-182 -78 0 -102 12 -123 63 -11 26 -18 30 -52 30 -40 0 -40 0 -34 -31 29 -148
283 -182 369 -49 39 61 26 155 -27 195 -30 22 -79 42 -162 64 -55 15 -91 44
-99 82 -24 110 150 151 213 51 13 -21 25 -27 49 -27 17 0 34 3 38 7 11 11 -5
47 -36 83 -46 52 -126 72 -213 53z"/>
<path d="M3165 2512 c-3 -3 -5 -108 -5 -234 l0 -229 38 3 37 3 2 105 c0 58 2
108 3 113 3 9 3 45 0 55 -1 4 -2 48 -2 97 l1 90 -34 1 c-19 1 -37 -1 -40 -4z"/>
<path d="M3375 2511 c-3 -2 -5 -156 -5 -341 l0 -337 38 1 37 1 0 143 c0 78 1
142 1 142 1 0 25 -16 54 -35 29 -19 62 -36 74 -36 66 -5 84 -4 111 5 46 15 93
55 123 105 23 39 26 56 26 126 0 70 -4 87 -26 126 -15 24 -35 51 -45 59 -80
67 -211 64 -285 -7 l-28 -27 -1 30 c-1 16 -1 34 0 39 1 10 -65 15 -74 6z m318
-83 c36 -26 59 -71 64 -130 15 -171 -180 -251 -280 -116 -26 34 -34 126 -16
170 15 40 57 84 84 91 44 11 120 3 148 -15z"/>
<path d="M3951 2511 c-6 -4 -9 -131 -8 -341 l2 -335 33 -1 c18 -1 35 2 37 6 4
6 6 43 5 95 0 11 -1 60 -1 108 l0 89 28 -27 c41 -38 75 -54 128 -59 68 -5 114
12 165 64 139 139 64 388 -123 407 -67 7 -131 -13 -168 -53 l-24 -26 -5 38
c-4 33 -9 38 -32 39 -15 1 -31 -1 -37 -4z m319 -89 c42 -31 62 -87 56 -151 -7
-80 -6 -77 -41 -111 -109 -106 -276 -18 -261 138 6 63 21 95 57 121 57 42 134
43 189 3z"/>
<path d="M4509 2500 c0 -8 -2 -113 -2 -233 l-2 -217 36 0 c21 0 39 6 41 13 4
10 3 388 -1 438 -1 23 -71 22 -72 -1z"/>
<path d="M4717 2505 c-2 -5 -3 -109 -3 -230 l1 -220 38 -3 c20 -2 37 0 38 5 0
4 2 76 3 159 1 162 8 185 60 219 32 21 109 22 141 1 48 -32 56 -64 56 -232 l0
-154 40 0 40 0 -2 163 c-1 171 -9 208 -52 256 -50 54 -148 67 -224 30 -24 -11
-43 -25 -43 -30 0 -5 -5 -9 -11 -9 -6 0 -9 9 -6 20 3 10 0 24 -7 29 -14 12
-65 9 -69 -4z"/>
<path d="M5354 2501 c-103 -47 -148 -155 -121 -295 11 -52 56 -110 109 -137
77 -40 165 -30 233 26 l41 33 -4 -62 c-5 -93 -17 -122 -65 -150 -29 -17 -54
-24 -82 -22 -44 3 -115 30 -115 44 0 20 -40 49 -66 47 -40 -2 -41 -23 -4 -74
85 -117 292 -113 375 7 l30 44 0 276 0 277 -35 0 c-36 -1 -36 0 -39 -59 -1
-16 -6 -14 -33 13 -54 53 -149 66 -224 32z m180 -70 c53 -30 71 -65 73 -139 3
-114 -51 -176 -152 -176 -84 0 -139 53 -150 144 -10 75 31 156 90 181 34 13
108 8 139 -10z"/>
</g>
</svg>
