<?xml version="1.0" encoding="utf-8"?>
<!-- Generator: Adobe Illustrator 23.0.2, SVG Export Plug-In . SVG Version: 6.00 Build 0)  -->
<svg version="1.1" id="Layer_1" xmlns="http://www.w3.org/2000/svg" xmlns:xlink="http://www.w3.org/1999/xlink" x="0px" y="0px"
	 viewBox="0 0 500 500" style="enable-background:new 0 0 500 500;" xml:space="preserve">
<style type="text/css">
	.st0{fill:#594A42;}
	.st1{fill:#9B8579;}
	.st2{fill:#D62B47;}
	.st3{fill:#BE1E2D;}
	.st4{fill:#FBB040;}
	.st5{fill:#DCC172;}
	.st6{fill:#E5E5E5;}
	.st7{fill:#F9ED32;}
	.st8{fill:#BC7528;}
	.st9{fill:#D19A4A;}
	.st10{fill:#D8A664;}
	.st11{fill:#EDD49D;}
</style>
<g>
	<path class="st0" d="M50.93,335.72h31.57c-0.15-1.56-0.23-3.12-0.23-4.7c0-3.26,0.33-6.43,0.93-9.52H50.93V335.72z"/>
	<path class="st1" d="M275.05,270.68H50.93v50.82h32.27c4.45-23.14,24.79-40.64,49.23-40.64c24.44,0,44.77,17.51,49.22,40.64h93.41
		V270.68z"/>
	<path class="st0" d="M181.64,321.5c0.6,3.09,0.93,6.26,0.93,9.52c0,1.59-0.09,3.15-0.23,4.7h92.7V321.5H181.64z"/>
	<polygon class="st2" points="385.55,193.1 280.53,193.1 280.53,270.68 442.75,270.68 409.84,264.41 	"/>
	<path class="st3" d="M280.53,335.72h19.04c-0.15-1.56-0.25-3.12-0.25-4.7c0-27.27,22.12-49.37,49.39-49.37
		c27.28,0,49.36,22.11,49.36,49.37c0,1.59-0.08,3.15-0.22,4.7h44.9v-65.04H280.53V335.72z"/>
	<path class="st4" d="M454,288.96c0-6.48-3.36-11.75-7.5-11.75v23.51C450.64,300.71,454,295.46,454,288.96z"/>
	<path class="st0" d="M173.96,331.02c0,22.93-18.6,41.54-41.53,41.54c-22.93,0-41.53-18.6-41.53-41.54
		c0-22.94,18.59-41.53,41.53-41.53C155.36,289.49,173.96,308.08,173.96,331.02z"/>
	<path class="st5" d="M153.19,331.02c0,11.47-9.3,20.76-20.76,20.76c-11.48,0-20.78-9.3-20.78-20.76c0-11.47,9.3-20.78,20.78-20.78
		C143.89,310.24,153.19,319.55,153.19,331.02z"/>
	<path class="st0" d="M390.25,331.02c0,22.93-18.59,41.54-41.54,41.54c-22.94,0-41.52-18.6-41.52-41.54
		c0-22.94,18.58-41.53,41.52-41.53C371.66,289.49,390.25,308.08,390.25,331.02z"/>
	<path class="st5" d="M369.47,331.02c0,11.47-9.3,20.76-20.76,20.76c-11.47,0-20.77-9.3-20.77-20.76c0-11.47,9.3-20.78,20.77-20.78
		C360.17,310.24,369.47,319.55,369.47,331.02z"/>
	<polygon class="st6" points="378.88,264.41 313.05,264.41 313.05,205.63 360.06,205.63 	"/>
	<polygon class="st6" points="409.84,264.41 393.61,260.95 374.97,205.63 389.58,204.94 	"/>
	<rect x="442.75" y="270.68" class="st0" width="3.75" height="65.04"/>
	<path class="st0" d="M325.79,273.81c0,1.19-0.98,2.16-2.15,2.16h-14.3c-1.19,0-2.15-0.97-2.15-2.16l0,0c0-1.19,0.96-2.15,2.15-2.15
		h14.3C324.81,271.65,325.79,272.62,325.79,273.81L325.79,273.81z"/>
	<path class="st7" d="M419.82,281.35c0,1.41-1.27,2.53-2.83,2.53l0,0c-1.58,0-2.85-1.12-2.85-2.53v-0.97c0-1.41,1.27-2.54,2.85-2.54
		l0,0c1.56,0,2.83,1.13,2.83,2.54V281.35z"/>
	<rect x="46.29" y="298.87" class="st3" width="4.64" height="22.63"/>
	<g>
		<g>
			<rect x="50.93" y="128.43" class="st8" width="221.8" height="142.99"/>
			<rect x="59.22" y="134.79" class="st9" width="205.2" height="136.63"/>
			<rect x="84.95" y="134.67" class="st8" width="6.06" height="136.99"/>
			<rect x="122.42" y="134.67" class="st8" width="6.06" height="136.99"/>
			<rect x="159.9" y="134.67" class="st8" width="6.06" height="136.99"/>
			<rect x="59.22" y="134.76" class="st10" width="7.19" height="136.66"/>
			<rect x="91.22" y="134.76" class="st10" width="7.19" height="136.66"/>
			<rect x="128.48" y="134.76" class="st10" width="7.2" height="136.66"/>
			<rect x="165.96" y="134.76" class="st10" width="7.2" height="136.66"/>
			<rect x="203.45" y="134.76" class="st10" width="7.18" height="136.66"/>
			<rect x="240.93" y="134.76" class="st10" width="7.19" height="136.66"/>
			<rect x="197.36" y="134.67" class="st8" width="6.09" height="136.99"/>
			<rect x="234.85" y="134.67" class="st8" width="6.07" height="136.99"/>
			<polygon class="st8" points="57.77,133.26 99.78,133.26 247.5,271.42 204.4,271.42 			"/>
			<polygon class="st10" points="66.41,135.38 212.65,271.65 239.61,271.65 93.03,135.38 			"/>
		</g>
		<rect x="190.75" y="151.75" class="st11" width="56.75" height="37.71"/>
		<path class="st8" d="M249.23,190.95h-60.21v-40.69h60.21V190.95z M192.49,187.97h53.28v-34.73h-53.28V187.97z"/>
	</g>
</g>
</svg>
