<?xml version="1.0" encoding="utf-8"?>
<!-- Generator: Adobe Illustrator 23.0.2, SVG Export Plug-In . SVG Version: 6.00 Build 0)  -->
<svg version="1.1" id="Layer_1" xmlns="http://www.w3.org/2000/svg" xmlns:xlink="http://www.w3.org/1999/xlink" x="0px" y="0px"
	 viewBox="0 0 500 500" style="enable-background:new 0 0 500 500;" xml:space="preserve">
<style type="text/css">
	.st0{fill:#F16501;}
	.st1{fill:#FD9800;}
	.st2{fill:#FFFFFF;}
	.st3{fill:#383838;}
	.st4{fill:#16C1D1;}
	.st5{fill:#D62B47;}
	.st6{fill:#1F96AE;}
	.st7{fill:#BE1E2D;}
</style>
<g>
	<g>
		<g>
			<polygon class="st0" points="249.98,348.22 247.65,345.89 247.65,345.4 247.4,345.64 247.17,345.4 247.17,345.89 244.83,348.22 
				200.37,374.58 247.17,374.58 247.65,374.58 294.45,374.58 			"/>
			<rect x="231.41" y="334.44" width="32" height="21.94"/>
			<g>
				<polygon class="st1" points="124.92,324.09 124.92,174.49 247.4,174.49 247.4,145.67 103.01,145.67 103.01,341.34 247.4,341.34 
					247.4,324.09 				"/>
				<polygon class="st1" points="391.8,145.67 247.4,145.67 247.4,174.49 369.9,174.49 369.9,324.09 247.4,324.09 247.4,341.34 
					391.8,341.34 				"/>
			</g>
			<rect x="120.8" y="169.2" class="st2" width="254.2" height="145.6"/>
			<g>
				<path class="st3" d="M115.5,162.6V308.1v15.99h9.42H369.9h9.41V308.1V162.6H115.5z M124.92,308.1V174.49H369.9V308.1H124.92z"/>
			</g>
		</g>
		<g>
			<g>
				<path class="st1" d="M266.58,270.12h-44.25c-1.57,0-2.85-1.28-2.85-2.85c0-1.57,1.27-2.85,2.85-2.85h42.1l12.05-42.19
					c0.35-1.23,1.47-2.07,2.74-2.07h17.68c1.59,0,2.85,1.27,2.85,2.85c0,1.57-1.27,2.84-2.85,2.84h-15.55l-12.05,42.19
					C268.95,269.27,267.84,270.12,266.58,270.12z"/>
			</g>
			<g>
				<path class="st1" d="M230.23,295.39c-5.23,0-9.49-4.27-9.49-9.5c0-5.23,4.26-9.49,9.49-9.49c5.22,0,9.48,4.27,9.48,9.49
					C239.71,291.12,235.45,295.39,230.23,295.39z M230.23,282.1c-2.1,0-3.81,1.71-3.81,3.8c0,2.1,1.71,3.8,3.81,3.8
					c2.09,0,3.79-1.7,3.79-3.8C234.01,283.8,232.32,282.1,230.23,282.1z"/>
			</g>
			<g>
				<path class="st1" d="M258.36,295.39c-5.23,0-9.49-4.27-9.49-9.5c0-5.23,4.26-9.49,9.49-9.49c5.22,0,9.49,4.27,9.49,9.49
					C267.84,291.12,263.58,295.39,258.36,295.39z M258.36,282.1c-2.09,0-3.8,1.71-3.8,3.8c0,2.1,1.71,3.8,3.8,3.8
					c2.08,0,3.8-1.7,3.8-3.8C262.16,283.8,260.44,282.1,258.36,282.1z"/>
			</g>
			<g>
				<g>
					<path class="st1" d="M222.33,259.66c-0.78,0-1.51-0.48-1.79-1.25l-11.37-31.62c-0.35-0.97,0.16-2.07,1.13-2.42
						c0.99-0.35,2.08,0.15,2.44,1.15l11.37,31.6c0.35,0.99-0.15,2.07-1.13,2.43C222.75,259.61,222.54,259.66,222.33,259.66z"/>
				</g>
				<g>
					<path class="st1" d="M231.65,259.66c-0.86,0-1.65-0.6-1.85-1.48l-7.2-31.61c-0.23-1.02,0.41-2.04,1.44-2.27
						c1.04-0.24,2.03,0.41,2.26,1.43l7.2,31.61c0.22,1.02-0.42,2.03-1.43,2.27C231.93,259.64,231.79,259.66,231.65,259.66z"/>
				</g>
				<g>
					<path class="st1" d="M240.97,259.66c-0.97,0-1.79-0.73-1.89-1.72l-2.99-31.61c-0.11-1.04,0.66-1.97,1.71-2.06
						c1.02-0.07,1.96,0.66,2.06,1.7l3,31.61c0.1,1.04-0.65,1.97-1.71,2.07C241.1,259.65,241.03,259.66,240.97,259.66z"/>
				</g>
				<g>
					<path class="st1" d="M250.3,259.66c-0.03,0-0.05,0-0.07,0c-1.05-0.05-1.86-0.92-1.83-1.97l1.19-31.61
						c0.04-1.05,0.89-1.83,1.96-1.82c1.05,0.04,1.86,0.92,1.82,1.97l-1.18,31.61C252.15,258.86,251.31,259.66,250.3,259.66z"/>
				</g>
				<g>
					<path class="st1" d="M259.62,259.66c-0.1,0-0.21-0.01-0.32-0.03c-1.04-0.18-1.73-1.16-1.54-2.19l5.37-31.61
						c0.17-1.04,1.17-1.72,2.18-1.56c1.04,0.18,1.72,1.16,1.54,2.19l-5.37,31.6C261.33,259,260.53,259.66,259.62,259.66z"/>
				</g>
			</g>
			<g>
				<g>
					<path class="st1" d="M264.23,228.04h-53.28c-1.05,0-1.89-0.85-1.89-1.9c0-1.04,0.84-1.89,1.89-1.89h53.28
						c1.04,0,1.89,0.85,1.89,1.89C266.12,227.2,265.27,228.04,264.23,228.04z"/>
				</g>
				<g>
					<path class="st1" d="M262.97,235.95h-49.19c-1.04,0-1.89-0.85-1.89-1.9c0-1.05,0.85-1.9,1.89-1.9h49.19
						c1.05,0,1.9,0.85,1.9,1.9C264.87,235.1,264.02,235.95,262.97,235.95z"/>
				</g>
				<g>
					<path class="st1" d="M261.74,243.84h-45.11c-1.03,0-1.89-0.84-1.89-1.89c0-1.05,0.86-1.9,1.89-1.9h45.11
						c1.04,0,1.89,0.85,1.89,1.9C263.62,243,262.78,243.84,261.74,243.84z"/>
				</g>
				<g>
					<path class="st1" d="M260.49,251.75h-41c-1.05,0-1.9-0.85-1.9-1.9c0-1.05,0.85-1.9,1.9-1.9h41c1.05,0,1.89,0.85,1.89,1.9
						C262.37,250.9,261.54,251.75,260.49,251.75z"/>
				</g>
				<g>
					<path class="st1" d="M259.24,259.66h-36.91c-1.04,0-1.9-0.85-1.9-1.9c0-1.04,0.86-1.89,1.9-1.89h36.91
						c1.04,0,1.89,0.85,1.89,1.89C261.13,258.81,260.28,259.66,259.24,259.66z"/>
				</g>
			</g>
		</g>
		<g>
			<g>
				<polygon class="st4" points="178.23,125.26 159.59,196.47 195.76,196.47 206.94,125.26 				"/>
				<polygon class="st5" points="206.94,125.26 195.76,196.47 231.93,196.47 235.66,125.26 				"/>
				<polygon class="st5" points="149.52,125.26 123.43,196.47 159.59,196.47 178.23,125.26 				"/>
				<polygon class="st5" points="98.91,125.26 64.56,196.47 87.25,196.47 120.79,125.26 				"/>
				<polygon class="st4" points="120.79,125.26 87.25,196.47 123.43,196.47 149.52,125.26 				"/>
				<polygon class="st4" points="235.66,125.26 231.93,196.47 268.09,196.47 264.37,125.26 				"/>
				<polygon class="st5" points="435.47,196.47 401.12,125.26 379.24,125.26 412.77,196.47 				"/>
				<polygon class="st4" points="379.24,125.26 350.52,125.26 376.61,196.47 412.77,196.47 				"/>
				<polygon class="st4" points="293.1,125.26 304.27,196.47 340.44,196.47 321.81,125.26 				"/>
				<polygon class="st5" points="321.81,125.26 340.44,196.47 376.61,196.47 350.52,125.26 				"/>
				<polygon class="st5" points="264.37,125.26 268.09,196.47 304.27,196.47 293.1,125.26 				"/>
			</g>
			<g>
				<rect x="159.59" y="196.47" class="st6" width="36.17" height="13.84"/>
				<rect x="195.76" y="196.47" class="st7" width="36.17" height="13.84"/>
				<rect x="231.93" y="196.47" class="st6" width="36.16" height="13.84"/>
				<rect x="64.56" y="196.47" class="st7" width="22.69" height="13.84"/>
				<rect x="123.43" y="196.47" class="st7" width="36.16" height="13.84"/>
				<rect x="87.25" y="196.47" class="st6" width="36.18" height="13.84"/>
				<rect x="412.77" y="196.47" class="st7" width="22.69" height="13.84"/>
				<rect x="376.61" y="196.47" class="st6" width="36.17" height="13.84"/>
				<rect x="340.44" y="196.47" class="st7" width="36.17" height="13.84"/>
				<rect x="268.09" y="196.47" class="st7" width="36.18" height="13.84"/>
				<rect x="304.27" y="196.47" class="st6" width="36.17" height="13.84"/>
			</g>
		</g>
	</g>
</g>
</svg>
