<?xml version="1.0" encoding="utf-8"?>
<!-- Generator: Adobe Illustrator 23.0.2, SVG Export Plug-In . SVG Version: 6.00 Build 0)  -->
<svg version="1.1" id="Layer_1" xmlns="http://www.w3.org/2000/svg" xmlns:xlink="http://www.w3.org/1999/xlink" x="0px" y="0px"
	 viewBox="0 0 500 500" style="enable-background:new 0 0 500 500;" xml:space="preserve">
<style type="text/css">
	.st0{fill:#0F303F;}
	.st1{fill:#2C5871;}
	.st2{fill:#FFFFFF;}
	.st3{fill:#FBB03B;}
	.st4{fill:#F2F2F2;}
	.st5{fill:#977B5A;}
</style>
<g>
	<g>
		<path class="st0" d="M249.39,29.6h-73.56v373.22h73.56c14.87,0,26.92-12.05,26.92-26.91V56.52
			C276.31,41.64,264.26,29.6,249.39,29.6z"/>
		<path class="st1" d="M102.25,29.6c-14.87,0-26.91,12.04-26.91,26.92V375.9c0,14.86,12.05,26.91,26.91,26.91h73.58V29.6H102.25z"/>
	</g>
	<rect x="134.96" y="44.53" class="st2" width="81.73" height="6.72"/>
	<g>
		<path class="st2" d="M175.83,392.38c-12.23,0-22.19-9.95-22.19-22.19c0-12.22,9.96-22.19,22.19-22.19
			c12.23,0,22.19,9.96,22.19,22.19C198.02,382.43,188.07,392.38,175.83,392.38z M175.83,352.83c-9.58,0-17.36,7.8-17.36,17.36
			c0,9.58,7.78,17.36,17.36,17.36c9.58,0,17.36-7.78,17.36-17.36C193.19,360.62,185.41,352.83,175.83,352.83z"/>
	</g>
	<polygon class="st3" points="176.81,70.08 85.1,70.08 85.1,334.56 176.81,334.56 266.55,334.56 266.55,70.08 	"/>
	<rect x="100" y="201" class="st4" width="157" height="31"/>
	<path class="st5" d="M451.47,391.05l-30.16-22.29c0,0-22.49-68.13-35.34-77.12c-5.87-7.22-14.96-24.53-19.92-41.13
		c-13.5-17.35-17.35-19.92-34.06-38.56c-14.14,12.86-5.42,29.35,0,46.92c7.44,11.46,25.9,27.11,16.06,33.41
		c-11.55,7.42-44.98-25.06-44.98-25.06c-20.79-28.23-58.16-74.3-69.57-72.29c-4.34,0.78-12.69,5.46-10.12,14.45
		c2.57,9,43.7,56.56,48.84,64.26c16.71,19.93-13.36,24.16-12.86,37.28c0.51,13.12-12.84,38.56-10.28,51.41
		c2.57,12.85,38.44,43.89,55.62,50.08c26.51,9.55,48.92-2.22,71.45,15.32c8.5,6.62,16.17,13.92,22.08,20.28
		C419.12,432.3,437.15,413,451.47,391.05z"/>
</g>
<rect x="100" y="160" class="st4" width="157" height="32"/>
</svg>
