<?xml version="1.0" encoding="utf-8"?>
<!-- Generator: Adobe Illustrator 23.0.2, SVG Export Plug-In . SVG Version: 6.00 Build 0)  -->
<svg version="1.1" id="Layer_1" xmlns="http://www.w3.org/2000/svg" xmlns:xlink="http://www.w3.org/1999/xlink" x="0px" y="0px"
	 viewBox="0 0 500 500" style="enable-background:new 0 0 500 500;" xml:space="preserve">
<style type="text/css">
	.st0{fill:#F7941E;}
	.st1{fill:#8C8279;}
	.st2{fill:#BC7528;}
	.st3{fill:#D19A4A;}
	.st4{fill:#D8A664;}
	.st5{fill:#594A42;}
	.st6{fill:#DCC172;}
	.st7{fill:#F7E8C9;}
</style>
<g>
	<g>
		<path class="st0" d="M68.35,134.78c-6.64,1.34-10.93,7.83-9.57,14.47c1.36,6.63,7.84,10.92,14.47,9.57l50.64-10.32l-4.43-24.13
			L68.35,134.78z"/>
		<path class="st1" d="M400.7,337.55c-3.68-18.02-24.3-23.37-43.12-20.69l-123.06,25.05l-28.24-11.4l-34.99-171.83
			c-2.79-13.69-9.08-23.73-18.69-29.84c-13.07-8.3-27.07-5.8-29.75-5.15l-3.37,0.69l4.43,24.13l4.24-0.87c0.01,0,0.01,0,0.01,0
			c0.16-0.03,6.46-1.27,11.43,2c3.7,2.43,6.27,7.11,7.66,13.93l37.63,184.76l47.31,19.09l129.19-26.32
			c5.78-0.75,13.34,0.03,15.33,1.57c1.45,6.51,7.85,10.68,14.41,9.34C397.76,350.66,402.05,344.18,400.7,337.55z"/>
		<g>
			<polygon class="st2" points="442,294.32 214.6,340.62 171.72,130.13 399.12,83.8 			"/>
			
				<rect x="199.39" y="113.9" transform="matrix(0.9799 -0.1996 0.1996 0.9799 -36.0687 65.4848)" class="st3" width="214.7" height="195.44"/>
			<polygon class="st2" points="253.65,322.16 247.42,323.43 208.39,131.73 214.6,130.47 			"/>
			
				<rect x="266.27" y="121.31" transform="matrix(0.98 -0.199 0.199 0.98 -38.2204 58.0076)" class="st2" width="6.35" height="195.63"/>
			
				<rect x="304.69" y="113.49" transform="matrix(0.9796 -0.2009 0.2009 0.9796 -36.1684 66.1443)" class="st2" width="6.34" height="195.63"/>
			
				<rect x="201.44" y="134.53" transform="matrix(0.9797 -0.2003 0.2003 0.9797 -42.3398 45.8137)" class="st4" width="7.52" height="195.17"/>
			
				<rect x="234.23" y="127.85" transform="matrix(0.9798 -0.1999 0.1999 0.9798 -40.2662 52.1357)" class="st4" width="7.53" height="195.16"/>
			<polygon class="st4" points="260.42,121.27 253.05,122.78 292.01,314.02 299.38,312.52 			"/>
			<polygon class="st4" points="298.85,113.46 291.47,114.95 330.43,306.2 337.8,304.69 			"/>
			
				<rect x="349.3" y="104.41" transform="matrix(0.9796 -0.2011 0.2011 0.9796 -33.4105 75.1336)" class="st4" width="7.51" height="195.17"/>
			
				<rect x="387.73" y="96.58" transform="matrix(0.9799 -0.1995 0.1995 0.9799 -30.8643 81.996)" class="st4" width="7.52" height="195.18"/>
			<polygon class="st2" points="368.92,298.69 362.7,299.96 323.65,108.26 329.88,106.99 			"/>
			
				<rect x="381.53" y="97.83" transform="matrix(0.9799 -0.1997 0.1997 0.9799 -31.325 80.7783)" class="st2" width="6.36" height="195.64"/>
			<polygon class="st2" points="180.12,135.45 223.19,126.69 431.43,285.95 387.44,295.09 			"/>
			<polygon class="st4" points="189.58,136.6 395.74,293.39 423.36,287.77 216.86,131.06 			"/>
		</g>
		<g>
			<path class="st5" d="M276.12,343.24c6.59,32.34-14.29,63.9-46.63,70.49c-32.34,6.59-63.9-14.29-70.49-46.63
				c-6.59-32.35,14.29-63.9,46.63-70.49C237.97,290.02,269.53,310.89,276.12,343.24z"/>
			<path class="st6" d="M246.83,349.2c3.3,16.16-7.14,31.95-23.31,35.24c-16.17,3.29-31.96-7.15-35.25-23.32
				c-3.29-16.15,7.16-31.94,23.32-35.24C227.76,322.59,243.55,333.03,246.83,349.2z"/>
		</g>
	</g>
	<path class="st7" d="M214.52,353.67c-3.49,6.85-10.44,10.32-15.53,7.73c-5.09-2.6-6.39-10.26-2.9-17.11
		c3.49-6.87,10.45-10.32,15.54-7.73C216.72,339.14,218.01,346.8,214.52,353.67z"/>
</g>
</svg>
